<svg xmlns="http://www.w3.org/2000/svg" viewBox="0 0 16 16" width="16" height="16"><style>.st0{fill:none;stroke:#000;stroke-width:.85;stroke-miterlimit:10}</style><title>icon</title><path d="M4.8 6.6h-.7c-.3-.5-.6-1.1-.8-1.7-.2-.5-.3-1.1-.3-1.6 0-.7.1-1.3.4-1.9.2-.5.4-1 .7-1.4h.7c-.3.6-.5 1.2-.7 1.8-.2.8-.2 1.8 0 2.6.1.4.2.8.3 1.1 0 .3.2.6.4 1.1zm6.3 0c.2-.4.3-.7.4-.9.1-.2.2-.5.2-.8.1-.3.1-.5.1-.8v-.8c0-.5-.1-1-.2-1.5-.1-.6-.3-1.2-.6-1.8h.6c.3.5.6 1 .8 1.6.2.5.3 1.1.3 1.7 0 .5-.1 1-.2 1.5-.2.6-.5 1.3-.8 1.8h-.6z"/><path class="st0" d="M.6 13.2l3.2-1.7 2.5 1.7 3.2-1.7 2.6 1.6 3.2-1.6"/></svg>
